<?xml version="1.0" encoding="UTF-8" standalone="no"?>
<!DOCTYPE svg PUBLIC "-//W3C//DTD SVG 1.1//EN"
 "http://www.w3.org/Graphics/SVG/1.1/DTD/svg11.dtd">
<!-- Generated by graphviz version 2.49.3 (0)
 -->
<!-- Title: G Pages: 1 -->
<svg width="883pt" height="67pt"
 viewBox="0.00 0.00 883.00 67.00" xmlns="http://www.w3.org/2000/svg" xmlns:xlink="http://www.w3.org/1999/xlink">
<g id="graph0" class="graph" transform="scale(1 1) rotate(0) translate(4 63)">
<title>G</title>
<polygon fill="white" stroke="transparent" points="-4,4 -4,-63 879,-63 879,4 -4,4"/>
<text text-anchor="middle" x="437.5" y="-43.8" font-family="Times,serif" font-size="14.00">Compiler Pipeline</text>
<!-- Input -->
<!-- Scanner -->
<g id="node3" class="node">
<title>Scanner</title>
<polygon fill="none" stroke="black" points="241,-36 181,-36 181,0 241,0 241,-36"/>
<text text-anchor="middle" x="211" y="-14.3" font-family="Times,serif" font-size="14.00">Scanner</text>
</g>
<!-- Input&#45;&gt;Scanner -->
<g id="edge1" class="edge">
<title>Input&#45;&gt;Scanner</title>
<path fill="none" stroke="black" d="M54.08,-18C84.54,-18 135.26,-18 170.55,-18"/>
<polygon fill="black" stroke="black" points="170.96,-21.5 180.96,-18 170.96,-14.5 170.96,-21.5"/>
<text text-anchor="middle" x="117.5" y="-21.8" font-family="Times,serif" font-size="14.00">Source code text</text>
</g>
<!-- Output -->
<!-- Parser -->
<g id="node4" class="node">
<title>Parser</title>
<polygon fill="none" stroke="black" points="386,-36 332,-36 332,0 386,0 386,-36"/>
<text text-anchor="middle" x="359" y="-14.3" font-family="Times,serif" font-size="14.00">Parser</text>
</g>
<!-- Scanner&#45;&gt;Parser -->
<g id="edge2" class="edge">
<title>Scanner&#45;&gt;Parser</title>
<path fill="none" stroke="black" d="M241.19,-18C264.35,-18 296.83,-18 321.67,-18"/>
<polygon fill="black" stroke="black" points="321.8,-21.5 331.8,-18 321.8,-14.5 321.8,-21.5"/>
<text text-anchor="middle" x="286.5" y="-21.8" font-family="Times,serif" font-size="14.00">Token list</text>
</g>
<!-- Semantic Analyzer -->
<g id="node5" class="node">
<title>Semantic Analyzer</title>
<polygon fill="none" stroke="black" points="567,-36 448,-36 448,0 567,0 567,-36"/>
<text text-anchor="middle" x="507.5" y="-14.3" font-family="Times,serif" font-size="14.00">Semantic Analyzer</text>
</g>
<!-- Parser&#45;&gt;Semantic Analyzer -->
<g id="edge3" class="edge">
<title>Parser&#45;&gt;Semantic Analyzer</title>
<path fill="none" stroke="black" d="M386.19,-18C400.64,-18 419.31,-18 437.62,-18"/>
<polygon fill="black" stroke="black" points="437.73,-21.5 447.73,-18 437.73,-14.5 437.73,-21.5"/>
<text text-anchor="middle" x="417" y="-21.8" font-family="Times,serif" font-size="14.00">AST</text>
</g>
<!-- Code Generator -->
<g id="node6" class="node">
<title>Code Generator</title>
<polygon fill="none" stroke="black" points="721,-36 617,-36 617,0 721,0 721,-36"/>
<text text-anchor="middle" x="669" y="-14.3" font-family="Times,serif" font-size="14.00">Code Generator</text>
</g>
<!-- Semantic Analyzer&#45;&gt;Code Generator -->
<g id="edge4" class="edge">
<title>Semantic Analyzer&#45;&gt;Code Generator</title>
<path fill="none" stroke="black" d="M567.44,-18C580.25,-18 593.84,-18 606.74,-18"/>
<polygon fill="black" stroke="black" points="606.91,-21.5 616.91,-18 606.91,-14.5 606.91,-21.5"/>
<text text-anchor="middle" x="592" y="-21.8" font-family="Times,serif" font-size="14.00">IR</text>
</g>
<!-- Code Generator&#45;&gt;Output -->
<g id="edge5" class="edge">
<title>Code Generator&#45;&gt;Output</title>
<path fill="none" stroke="black" d="M721.05,-18C749.33,-18 783.84,-18 809.5,-18"/>
<polygon fill="black" stroke="black" points="809.57,-21.5 819.57,-18 809.57,-14.5 809.57,-21.5"/>
<text text-anchor="middle" x="770.5" y="-21.8" font-family="Times,serif" font-size="14.00">Output text</text>
</g>
</g>
</svg>
